<svg width="79" height="80" viewBox="0 0 79 80" fill="none" xmlns="http://www.w3.org/2000/svg">
<path d="M59.25 40V4C59.25 2.93913 58.8338 1.92172 58.0931 1.17157C57.3523 0.421427 56.3476 0 55.3 0H3.95C2.90239 0 1.8977 0.421427 1.15693 1.17157C0.416159 1.92172 0 2.93913 0 4V60L15.8 44H55.3C56.3476 44 57.3523 43.5786 58.0931 42.8284C58.8338 42.0783 59.25 41.0609 59.25 40ZM75.05 16H67.15V52H15.8V60C15.8 61.0609 16.2162 62.0783 16.9569 62.8284C17.6977 63.5786 18.7024 64 19.75 64H63.2L79 80V20C79 18.9391 78.5838 17.9217 77.8431 17.1716C77.1023 16.4214 76.0976 16 75.05 16Z" fill="#05204A"/>
</svg>
