<svg width="670" height="300" viewBox="0 0 670 300" fill="none" xmlns="http://www.w3.org/2000/svg">
<rect width="670" height="300" fill="#D9D9D9"/>
<path d="M144.902 43.7271C162.483 36.536 181.565 33.7916 200.459 35.7369C219.353 37.6821 237.476 44.2571 253.222 54.8794C268.969 65.5016 281.852 79.8433 290.732 96.634C299.611 113.425 304.213 132.146 304.129 151.14C304.045 170.134 299.278 188.814 290.25 205.526C281.223 222.237 268.213 236.464 252.373 246.947C236.534 257.43 218.354 263.844 199.443 265.622C180.532 267.4 161.475 264.487 143.959 257.141L188.63 150.63L144.902 43.7271Z" fill="#0F3085"/>
<path d="M404.902 43.7271C422.483 36.536 441.565 33.7916 460.459 35.7369C479.353 37.6821 497.476 44.2571 513.222 54.8794C528.969 65.5016 541.852 79.8433 550.732 96.634C559.611 113.425 564.213 132.146 564.129 151.14C564.045 170.134 559.278 188.814 550.25 205.526C541.223 222.237 528.213 236.464 512.373 246.947C496.534 257.43 478.354 263.844 459.443 265.622C440.532 267.4 421.475 264.487 403.959 257.141L448.63 150.63L404.902 43.7271Z" fill="#0F3085"/>
</svg>
